<svg xmlns="http://www.w3.org/2000/svg" width="1500" height="1800" viewBox="0 0 1500 1800">
<rect width="1500" height="1800" fill="#0f172a"/>
<text x="750" y="55" text-anchor="middle" font-size="32" font-family="Arial, PingFang SC, Microsoft YaHei, sans-serif" fill="#f8fafc" font-weight="700">ai-spec create 完整流水线</text>
<defs>
  <marker id="arrow" markerWidth="10" markerHeight="10" refX="9" refY="5" orient="auto">
    <path d="M0,0 L10,5 L0,10 Z" fill="#94a3b8"/>
  </marker>
</defs>
<g font-family="Arial, PingFang SC, Microsoft YaHei, sans-serif">
  <rect x="420" y="90" width="660" height="60" rx="18" fill="#1d4ed8" stroke="#60a5fa" stroke-width="2"/>
  <text x="750" y="128" text-anchor="middle" font-size="24" fill="#eff6ff" font-weight="700">▶ ai-spec create &lt;idea&gt;</text>

  <rect x="340" y="190" width="820" height="74" rx="18" fill="#1f2937" stroke="#475569"/>
  <text x="750" y="223" text-anchor="middle" font-size="23" fill="#f8fafc" font-weight="700">Step 1 · 加载项目上下文</text>
  <text x="750" y="250" text-anchor="middle" font-size="17" fill="#cbd5e1">ContextLoader 扫描代码结构 / 依赖 / 路由 / schema</text>

  <rect x="340" y="305" width="820" height="74" rx="18" fill="#1f2937" stroke="#475569"/>
  <text x="750" y="338" text-anchor="middle" font-size="23" fill="#f8fafc" font-weight="700">Step 2 · Spec + Tasks 生成</text>
  <text x="750" y="365" text-anchor="middle" font-size="17" fill="#cbd5e1">宪法全文注入 prompt 最高优先级</text>

  <rect x="340" y="420" width="820" height="74" rx="18" fill="#1f2937" stroke="#475569"/>
  <text x="750" y="453" text-anchor="middle" font-size="23" fill="#f8fafc" font-weight="700">Step 3 · 交互式润色</text>
  <text x="750" y="480" text-anchor="middle" font-size="17" fill="#cbd5e1">Diff 预览，可多轮修改</text>

  <rect x="340" y="535" width="820" height="74" rx="18" fill="#78350f" stroke="#f59e0b"/>
  <text x="750" y="568" text-anchor="middle" font-size="23" fill="#fffbeb" font-weight="700">Step 3.4 · Spec 质量评估</text>
  <text x="750" y="595" text-anchor="middle" font-size="17" fill="#fde68a">覆盖度 / 清晰度 / 宪法符合度打分</text>

  <polygon points="750,655 930,745 750,835 570,745" fill="#3f3f46" stroke="#71717a" stroke-width="2"/>
  <text x="750" y="734" text-anchor="middle" font-size="24" fill="#f8fafc" font-weight="700">Score ≥</text>
  <text x="750" y="764" text-anchor="middle" font-size="24" fill="#f8fafc" font-weight="700">minSpecScore ?</text>

  <rect x="110" y="715" width="300" height="60" rx="18" fill="#7f1d1d" stroke="#ef4444" stroke-width="2"/>
  <text x="260" y="752" text-anchor="middle" font-size="20" fill="#fef2f2">🚫 exit(1)（--force 可继续）</text>

  <rect x="1020" y="700" width="350" height="92" rx="18" fill="#3b0764" stroke="#c084fc" stroke-width="2"/>
  <text x="1195" y="736" text-anchor="middle" font-size="23" fill="#faf5ff" font-weight="700">Approval Gate</text>
  <text x="1195" y="765" text-anchor="middle" font-size="16" fill="#e9d5ff">展示 Spec + DSL 摘要</text>
  <text x="1195" y="788" text-anchor="middle" font-size="16" fill="#e9d5ff">等待人工决策</text>

  <rect x="1010" y="855" width="160" height="58" rx="16" fill="#7f1d1d" stroke="#ef4444"/>
  <text x="1090" y="891" text-anchor="middle" font-size="20" fill="#fef2f2">Abort</text>
  <rect x="1210" y="855" width="220" height="58" rx="16" fill="#14532d" stroke="#4ade80"/>
  <text x="1320" y="891" text-anchor="middle" font-size="20" fill="#f0fdf4">Proceed</text>

  <rect x="1070" y="955" width="250" height="84" rx="18" fill="#0c4a6e" stroke="#38bdf8" stroke-width="2"/>
  <text x="1195" y="990" text-anchor="middle" font-size="22" fill="#e0f2fe" font-weight="700">DSL 提取 + 校验</text>
  <text x="1195" y="1017" text-anchor="middle" font-size="16" fill="#bae6fd">9 条规则，失败最多重试 2 次</text>

  <rect x="1070" y="1085" width="250" height="76" rx="18" fill="#1e293b" stroke="#64748b"/>
  <text x="1195" y="1118" text-anchor="middle" font-size="20" fill="#e2e8f0" font-weight="700">RunId + 快照初始化</text>
  <text x="1195" y="1145" text-anchor="middle" font-size="16" fill="#cbd5e1">Prompt Hash 写入 RunLog</text>

  <rect x="930" y="1205" width="530" height="106" rx="20" fill="#1d4ed8" stroke="#60a5fa" stroke-width="2"/>
  <text x="1195" y="1245" text-anchor="middle" font-size="24" fill="#eff6ff" font-weight="700">Step 5–6 · Task 分层代码生成</text>
  <text x="1195" y="1276" text-anchor="middle" font-size="17" fill="#dbeafe">data → infra → service → api → view → route → test</text>
  <text x="1195" y="1299" text-anchor="middle" font-size="17" fill="#dbeafe">层内拓扑排序 → batch 并行 → 缓存更新</text>

  <rect x="1070" y="1355" width="250" height="60" rx="18" fill="#334155" stroke="#64748b"/>
  <text x="1195" y="1392" text-anchor="middle" font-size="20" fill="#f8fafc">Step 7 · 测试骨架生成</text>

  <rect x="120" y="1205" width="650" height="420" rx="24" fill="#111827" stroke="#334155" stroke-width="2"/>
  <text x="445" y="1245" text-anchor="middle" font-size="26" fill="#fca5a5" font-weight="700">Step 8 · 错误反馈闭环</text>
  <rect x="220" y="1285" width="450" height="60" rx="16" fill="#7f1d1d" stroke="#ef4444"/>
  <text x="445" y="1322" text-anchor="middle" font-size="21" fill="#fef2f2">运行 test / lint / tsc</text>
  <polygon points="445,1390 605,1470 445,1550 285,1470" fill="#3f3f46" stroke="#71717a" stroke-width="2"/>
  <text x="445" y="1460" text-anchor="middle" font-size="23" fill="#f8fafc" font-weight="700">全部通过？</text>
  <rect x="170" y="1578" width="200" height="58" rx="16" fill="#14532d" stroke="#4ade80"/>
  <text x="270" y="1614" text-anchor="middle" font-size="19" fill="#f0fdf4">通过 → Step 9</text>
  <rect x="410" y="1568" width="390" height="78" rx="18" fill="#92400e" stroke="#f59e0b"/>
  <text x="605" y="1600" text-anchor="middle" font-size="20" fill="#fffbeb">有错误，且 cycle ≤ 2</text>
  <text x="605" y="1625" text-anchor="middle" font-size="16" fill="#fde68a">依赖图排序 → AI 逐文件修复 → 回到测试</text>
  <rect x="170" y="1670" width="630" height="72" rx="18" fill="#4b5563" stroke="#9ca3af"/>
  <text x="485" y="1703" text-anchor="middle" font-size="20" fill="#f8fafc">cycle 2 仍失败 → ⚠️ 黄色警告，继续进入 Step 9</text>

  <rect x="930" y="1455" width="530" height="84" rx="18" fill="#4c0519" stroke="#f43f5e" stroke-width="2"/>
  <text x="1195" y="1491" text-anchor="middle" font-size="23" fill="#fff1f2" font-weight="700">Step 9 · 3-pass 代码审查</text>
  <text x="1195" y="1518" text-anchor="middle" font-size="16" fill="#fecdd3">Pass1 架构 · Pass2 实现 · Pass3 影响面 / 复杂度</text>

  <rect x="930" y="1585" width="250" height="76" rx="18" fill="#312e81" stroke="#818cf8"/>
  <text x="1055" y="1618" text-anchor="middle" font-size="20" fill="#eef2ff" font-weight="700">§9 知识积累</text>
  <text x="1055" y="1645" text-anchor="middle" font-size="15" fill="#c7d2fe">审查 issue 自动追加宪法</text>

  <rect x="1210" y="1585" width="250" height="92" rx="18" fill="#14532d" stroke="#4ade80"/>
  <text x="1335" y="1618" text-anchor="middle" font-size="20" fill="#f0fdf4" font-weight="700">Step 10 · Harness Self-Eval</text>
  <text x="1335" y="1645" text-anchor="middle" font-size="15" fill="#dcfce7">DSL 覆盖 + Compile + Review</text>

  <rect x="1020" y="1715" width="350" height="56" rx="18" fill="#0f766e" stroke="#2dd4bf"/>
  <text x="1195" y="1749" text-anchor="middle" font-size="22" fill="#ecfeff" font-weight="700">✔ Done：Spec / DSL / 代码 / RunLog 全部落盘</text>

  <line x1="750" y1="150" x2="750" y2="190" stroke="#94a3b8" stroke-width="4" marker-end="url(#arrow)"/>
  <line x1="750" y1="264" x2="750" y2="305" stroke="#94a3b8" stroke-width="4" marker-end="url(#arrow)"/>
  <line x1="750" y1="379" x2="750" y2="420" stroke="#94a3b8" stroke-width="4" marker-end="url(#arrow)"/>
  <line x1="750" y1="494" x2="750" y2="655" stroke="#94a3b8" stroke-width="4" marker-end="url(#arrow)"/>
  <line x1="570" y1="745" x2="410" y2="745" stroke="#94a3b8" stroke-width="4" marker-end="url(#arrow)"/>
  <line x1="930" y1="745" x2="1020" y2="745" stroke="#94a3b8" stroke-width="4" marker-end="url(#arrow)"/>
  <line x1="1195" y1="792" x2="1090" y2="855" stroke="#94a3b8" stroke-width="4" marker-end="url(#arrow)"/>
  <line x1="1195" y1="792" x2="1320" y2="855" stroke="#94a3b8" stroke-width="4" marker-end="url(#arrow)"/>
  <line x1="1320" y1="913" x2="1195" y2="955" stroke="#94a3b8" stroke-width="4" marker-end="url(#arrow)"/>
  <line x1="1195" y1="1039" x2="1195" y2="1085" stroke="#94a3b8" stroke-width="4" marker-end="url(#arrow)"/>
  <line x1="1195" y1="1161" x2="1195" y2="1205" stroke="#94a3b8" stroke-width="4" marker-end="url(#arrow)"/>
  <line x1="1195" y1="1311" x2="1195" y2="1355" stroke="#94a3b8" stroke-width="4" marker-end="url(#arrow)"/>
  <line x1="1070" y1="1385" x2="770" y2="1385" stroke="#94a3b8" stroke-width="4" marker-end="url(#arrow)"/>
  <line x1="445" y1="1345" x2="445" y2="1390" stroke="#94a3b8" stroke-width="4" marker-end="url(#arrow)"/>
  <line x1="365" y1="1470" x2="270" y2="1578" stroke="#94a3b8" stroke-width="4" marker-end="url(#arrow)"/>
  <line x1="525" y1="1542" x2="525" y2="1568" stroke="#94a3b8" stroke-width="4" marker-end="url(#arrow)"/>
  <line x1="800" y1="1607" x2="930" y2="1497" stroke="#94a3b8" stroke-width="4" marker-end="url(#arrow)"/>
  <line x1="270" y1="1636" x2="930" y2="1497" stroke="#94a3b8" stroke-width="4" marker-end="url(#arrow)"/>
  <line x1="1195" y1="1539" x2="1055" y2="1585" stroke="#94a3b8" stroke-width="4" marker-end="url(#arrow)"/>
  <line x1="1195" y1="1539" x2="1335" y2="1585" stroke="#94a3b8" stroke-width="4" marker-end="url(#arrow)"/>
  <line x1="1335" y1="1677" x2="1250" y2="1715" stroke="#94a3b8" stroke-width="4" marker-end="url(#arrow)"/>
</g>
</svg>
